<mxfile host="65bd71144e">
    <diagram name="Page-1" id="YgzLJy31ku_g3opXr3VX">
        <mxGraphModel dx="627" dy="-215" grid="1" gridSize="10" guides="1" tooltips="1" connect="1" arrows="1" fold="1" page="1" pageScale="1" pageWidth="1100" pageHeight="850" math="0" shadow="0">
            <root>
                <mxCell id="0"/>
                <mxCell id="1" parent="0"/>
                <mxCell id="jn6XTcoIALbjwuE5r2c3-2" value="" style="rounded=0;whiteSpace=wrap;html=1;strokeColor=#E3E3E3;sketch=1;curveFitting=1;jiggle=2;" parent="1" vertex="1">
                    <mxGeometry x="45" y="960" width="1010" height="610" as="geometry"/>
                </mxCell>
                <mxCell id="upVK2GjL-qc3BXvUK6z0-41" style="edgeStyle=orthogonalEdgeStyle;rounded=0;orthogonalLoop=1;jettySize=auto;html=1;fillColor=#ffe6cc;strokeColor=#d79b00;sketch=1;curveFitting=1;jiggle=2;exitX=1;exitY=0.5;exitDx=0;exitDy=0;" parent="1" source="upVK2GjL-qc3BXvUK6z0-2" target="upVK2GjL-qc3BXvUK6z0-33" edge="1">
                    <mxGeometry relative="1" as="geometry"/>
                </mxCell>
                <mxCell id="upVK2GjL-qc3BXvUK6z0-43" value="conversation&lt;div&gt;history&lt;/div&gt;" style="edgeLabel;html=1;align=center;verticalAlign=middle;resizable=0;points=[];sketch=1;curveFitting=1;jiggle=2;" parent="upVK2GjL-qc3BXvUK6z0-41" vertex="1" connectable="0">
                    <mxGeometry x="-0.2515" y="1" relative="1" as="geometry">
                        <mxPoint x="13" y="1" as="offset"/>
                    </mxGeometry>
                </mxCell>
                <mxCell id="upVK2GjL-qc3BXvUK6z0-2" value="&lt;h3&gt;&lt;br&gt;&lt;/h3&gt;" style="rounded=0;whiteSpace=wrap;html=1;align=left;verticalAlign=top;sketch=1;curveFitting=1;jiggle=2;" parent="1" vertex="1">
                    <mxGeometry x="160" y="1100" width="390" height="400" as="geometry"/>
                </mxCell>
                <mxCell id="upVK2GjL-qc3BXvUK6z0-30" style="edgeStyle=orthogonalEdgeStyle;rounded=0;orthogonalLoop=1;jettySize=auto;html=1;startArrow=classic;startFill=1;endArrow=none;endFill=0;fillColor=#ffe6cc;strokeColor=#d79b00;sketch=1;curveFitting=1;jiggle=2;" parent="1" source="upVK2GjL-qc3BXvUK6z0-2" edge="1">
                    <mxGeometry relative="1" as="geometry">
                        <mxPoint x="70" y="1300" as="targetPoint"/>
                        <mxPoint x="200.00001721763329" y="1429.730303030303" as="sourcePoint"/>
                    </mxGeometry>
                </mxCell>
                <mxCell id="upVK2GjL-qc3BXvUK6z0-31" value="start" style="edgeLabel;html=1;align=center;verticalAlign=middle;resizable=0;points=[];sketch=1;curveFitting=1;jiggle=2;" parent="upVK2GjL-qc3BXvUK6z0-30" vertex="1" connectable="0">
                    <mxGeometry x="0.8088" y="-2" relative="1" as="geometry">
                        <mxPoint x="21" y="2" as="offset"/>
                    </mxGeometry>
                </mxCell>
                <mxCell id="upVK2GjL-qc3BXvUK6z0-51" style="edgeStyle=orthogonalEdgeStyle;rounded=0;orthogonalLoop=1;jettySize=auto;html=1;entryX=0;entryY=0.5;entryDx=0;entryDy=0;curved=1;exitX=0.01;exitY=0.668;exitDx=0;exitDy=0;exitPerimeter=0;startArrow=classic;startFill=1;endArrow=none;endFill=0;fillColor=#ffe6cc;strokeColor=#d79b00;sketch=1;curveFitting=1;jiggle=2;" parent="1" source="nqvSTzeSLYggFFPvCb2e-24" target="upVK2GjL-qc3BXvUK6z0-2" edge="1">
                    <mxGeometry relative="1" as="geometry">
                        <Array as="points">
                            <mxPoint x="301" y="1450"/>
                            <mxPoint x="200" y="1450"/>
                            <mxPoint x="200" y="1300"/>
                        </Array>
                    </mxGeometry>
                </mxCell>
                <mxCell id="nqvSTzeSLYggFFPvCb2e-24" value="Test User" style="ellipse;whiteSpace=wrap;html=1;sketch=1;curveFitting=1;jiggle=2;fillColor=#dae8fc;strokeColor=#6c8ebf;" parent="1" vertex="1">
                    <mxGeometry x="300" y="1390" width="120" height="80" as="geometry"/>
                </mxCell>
                <mxCell id="upVK2GjL-qc3BXvUK6z0-1" value="Assistant" style="ellipse;whiteSpace=wrap;html=1;sketch=1;curveFitting=1;jiggle=2;fillColor=#d5e8d4;strokeColor=#82b366;" parent="1" vertex="1">
                    <mxGeometry x="300" y="1230" width="120" height="80" as="geometry"/>
                </mxCell>
                <mxCell id="upVK2GjL-qc3BXvUK6z0-7" value="" style="curved=1;endArrow=none;html=1;rounded=0;exitX=0.02;exitY=0.653;exitDx=0;exitDy=0;exitPerimeter=0;startArrow=classic;startFill=1;endFill=0;entryX=0;entryY=0.5;entryDx=0;entryDy=0;fillColor=#d5e8d4;strokeColor=#82b366;sketch=1;curveFitting=1;jiggle=2;" parent="1" source="nqvSTzeSLYggFFPvCb2e-24" target="upVK2GjL-qc3BXvUK6z0-1" edge="1">
                    <mxGeometry width="50" height="50" relative="1" as="geometry">
                        <mxPoint x="440" y="1380" as="sourcePoint"/>
                        <mxPoint x="490" y="1330" as="targetPoint"/>
                        <Array as="points">
                            <mxPoint x="180" y="1360"/>
                        </Array>
                    </mxGeometry>
                </mxCell>
                <mxCell id="upVK2GjL-qc3BXvUK6z0-18" value="chat" style="edgeLabel;html=1;align=center;verticalAlign=middle;resizable=0;points=[];sketch=1;curveFitting=1;jiggle=2;" parent="upVK2GjL-qc3BXvUK6z0-7" vertex="1" connectable="0">
                    <mxGeometry x="0.328" y="-28" relative="1" as="geometry">
                        <mxPoint as="offset"/>
                    </mxGeometry>
                </mxCell>
                <mxCell id="upVK2GjL-qc3BXvUK6z0-15" value="" style="curved=1;endArrow=none;html=1;rounded=0;entryX=1;entryY=0.5;entryDx=0;entryDy=0;exitX=0.995;exitY=0.577;exitDx=0;exitDy=0;exitPerimeter=0;startArrow=classic;startFill=1;endFill=0;fillColor=#dae8fc;strokeColor=#6c8ebf;sketch=1;curveFitting=1;jiggle=2;" parent="1" source="upVK2GjL-qc3BXvUK6z0-1" target="nqvSTzeSLYggFFPvCb2e-24" edge="1">
                    <mxGeometry width="50" height="50" relative="1" as="geometry">
                        <mxPoint x="522" y="1446" as="sourcePoint"/>
                        <mxPoint x="520" y="1274" as="targetPoint"/>
                        <Array as="points">
                            <mxPoint x="520" y="1350"/>
                        </Array>
                    </mxGeometry>
                </mxCell>
                <mxCell id="upVK2GjL-qc3BXvUK6z0-17" value="chat" style="edgeLabel;html=1;align=center;verticalAlign=middle;resizable=0;points=[];sketch=1;curveFitting=1;jiggle=2;" parent="upVK2GjL-qc3BXvUK6z0-15" vertex="1" connectable="0">
                    <mxGeometry x="-0.3587" y="-22" relative="1" as="geometry">
                        <mxPoint as="offset"/>
                    </mxGeometry>
                </mxCell>
                <mxCell id="upVK2GjL-qc3BXvUK6z0-19" value="Mocked Tools" style="ellipse;whiteSpace=wrap;html=1;fillColor=#f8cecc;strokeColor=#b85450;sketch=1;curveFitting=1;jiggle=2;" parent="1" vertex="1">
                    <mxGeometry x="305" y="1120" width="120" height="40" as="geometry"/>
                </mxCell>
                <mxCell id="upVK2GjL-qc3BXvUK6z0-26" value="" style="curved=1;endArrow=none;html=1;rounded=0;startArrow=classic;startFill=1;endFill=0;entryX=0.019;entryY=0.404;entryDx=0;entryDy=0;entryPerimeter=0;sketch=1;curveFitting=1;jiggle=2;fillColor=#f8cecc;strokeColor=#b85450;" parent="1" source="upVK2GjL-qc3BXvUK6z0-1" target="upVK2GjL-qc3BXvUK6z0-19" edge="1">
                    <mxGeometry width="50" height="50" relative="1" as="geometry">
                        <mxPoint x="262" y="1282" as="sourcePoint"/>
                        <mxPoint x="260" y="1110" as="targetPoint"/>
                        <Array as="points">
                            <mxPoint x="190" y="1200"/>
                        </Array>
                    </mxGeometry>
                </mxCell>
                <mxCell id="upVK2GjL-qc3BXvUK6z0-27" value="tool response" style="edgeLabel;html=1;align=center;verticalAlign=middle;resizable=0;points=[];sketch=1;curveFitting=1;jiggle=2;" parent="upVK2GjL-qc3BXvUK6z0-26" vertex="1" connectable="0">
                    <mxGeometry x="0.328" y="-28" relative="1" as="geometry">
                        <mxPoint as="offset"/>
                    </mxGeometry>
                </mxCell>
                <mxCell id="upVK2GjL-qc3BXvUK6z0-28" value="" style="curved=1;endArrow=none;html=1;rounded=0;startArrow=classic;startFill=1;endFill=0;exitX=1;exitY=0.5;exitDx=0;exitDy=0;entryX=0.995;entryY=0.319;entryDx=0;entryDy=0;entryPerimeter=0;fillColor=#d5e8d4;strokeColor=#82b366;sketch=1;curveFitting=1;jiggle=2;" parent="1" source="upVK2GjL-qc3BXvUK6z0-19" target="upVK2GjL-qc3BXvUK6z0-1" edge="1">
                    <mxGeometry width="50" height="50" relative="1" as="geometry">
                        <mxPoint x="526" y="1251" as="sourcePoint"/>
                        <mxPoint x="538" y="1150" as="targetPoint"/>
                        <Array as="points">
                            <mxPoint x="510" y="1198"/>
                        </Array>
                    </mxGeometry>
                </mxCell>
                <mxCell id="upVK2GjL-qc3BXvUK6z0-29" value="call tool" style="edgeLabel;html=1;align=center;verticalAlign=middle;resizable=0;points=[];sketch=1;curveFitting=1;jiggle=2;" parent="upVK2GjL-qc3BXvUK6z0-28" vertex="1" connectable="0">
                    <mxGeometry x="0.328" y="-28" relative="1" as="geometry">
                        <mxPoint as="offset"/>
                    </mxGeometry>
                </mxCell>
                <mxCell id="upVK2GjL-qc3BXvUK6z0-42" style="edgeStyle=orthogonalEdgeStyle;rounded=0;orthogonalLoop=1;jettySize=auto;html=1;entryX=0;entryY=0.5;entryDx=0;entryDy=0;sketch=1;curveFitting=1;jiggle=2;" parent="1" source="upVK2GjL-qc3BXvUK6z0-33" target="upVK2GjL-qc3BXvUK6z0-40" edge="1">
                    <mxGeometry relative="1" as="geometry"/>
                </mxCell>
                <mxCell id="upVK2GjL-qc3BXvUK6z0-44" value="report" style="edgeLabel;html=1;align=center;verticalAlign=middle;resizable=0;points=[];sketch=1;curveFitting=1;jiggle=2;" parent="upVK2GjL-qc3BXvUK6z0-42" vertex="1" connectable="0">
                    <mxGeometry x="-0.3944" y="-2" relative="1" as="geometry">
                        <mxPoint x="7" y="-2" as="offset"/>
                    </mxGeometry>
                </mxCell>
                <mxCell id="upVK2GjL-qc3BXvUK6z0-33" value="Conversation Analiser" style="ellipse;whiteSpace=wrap;html=1;sketch=1;curveFitting=1;jiggle=2;" parent="1" vertex="1">
                    <mxGeometry x="690" y="1260" width="150" height="80" as="geometry"/>
                </mxCell>
                <mxCell id="upVK2GjL-qc3BXvUK6z0-40" value="&amp;nbsp;{&lt;br&gt;&amp;nbsp; &amp;nbsp; &quot;score&quot;: 8,&lt;br&gt;&amp;nbsp; &amp;nbsp;&quot;feedback&quot;: &quot;...&quot;&lt;br&gt;&amp;nbsp;}" style="text;html=1;strokeColor=default;fillColor=none;align=left;verticalAlign=top;whiteSpace=wrap;rounded=0;sketch=1;curveFitting=1;jiggle=2;" parent="1" vertex="1">
                    <mxGeometry x="915" y="1265" width="110" height="70" as="geometry"/>
                </mxCell>
                <mxCell id="upVK2GjL-qc3BXvUK6z0-47" value="Conversation Runner" style="text;html=1;strokeColor=none;fillColor=none;align=center;verticalAlign=middle;whiteSpace=wrap;rounded=0;sketch=1;curveFitting=1;jiggle=2;" parent="1" vertex="1">
                    <mxGeometry x="140" y="1070" width="190" height="30" as="geometry"/>
                </mxCell>
                <mxCell id="UdZLuTKqAmfuTe7pYVBl-1" style="edgeStyle=orthogonalEdgeStyle;rounded=0;orthogonalLoop=1;jettySize=auto;html=1;fillColor=#ffe6cc;strokeColor=#d79b00;sketch=1;curveFitting=1;jiggle=2;exitX=0.999;exitY=0.123;exitDx=0;exitDy=0;exitPerimeter=0;" parent="1" source="upVK2GjL-qc3BXvUK6z0-2" target="UdZLuTKqAmfuTe7pYVBl-3" edge="1">
                    <mxGeometry relative="1" as="geometry">
                        <mxPoint x="610" y="1060" as="sourcePoint"/>
                        <mxPoint x="735" y="1060" as="targetPoint"/>
                    </mxGeometry>
                </mxCell>
                <mxCell id="UdZLuTKqAmfuTe7pYVBl-2" value="tool calls" style="edgeLabel;html=1;align=center;verticalAlign=middle;resizable=0;points=[];sketch=1;curveFitting=1;jiggle=2;" parent="UdZLuTKqAmfuTe7pYVBl-1" vertex="1" connectable="0">
                    <mxGeometry x="-0.2515" y="1" relative="1" as="geometry">
                        <mxPoint x="13" y="1" as="offset"/>
                    </mxGeometry>
                </mxCell>
                <mxCell id="UdZLuTKqAmfuTe7pYVBl-3" value="Tool Calls expectations" style="ellipse;whiteSpace=wrap;html=1;sketch=1;curveFitting=1;jiggle=2;" parent="1" vertex="1">
                    <mxGeometry x="690" y="1110" width="150" height="80" as="geometry"/>
                </mxCell>
                <mxCell id="UdZLuTKqAmfuTe7pYVBl-7" value="" style="shape=image;html=1;verticalAlign=top;verticalLabelPosition=bottom;labelBackgroundColor=#ffffff;imageAspect=0;aspect=fixed;image=https://cdn1.iconfinder.com/data/icons/DarkGlass_Reworked/128x128/actions/fileclose.png" parent="1" vertex="1">
                    <mxGeometry x="846" y="1150" width="10" height="10" as="geometry"/>
                </mxCell>
                <mxCell id="UdZLuTKqAmfuTe7pYVBl-8" value="" style="sketch=0;html=1;aspect=fixed;strokeColor=none;shadow=0;align=center;fillColor=#2D9C5E;verticalAlign=top;labelPosition=center;verticalLabelPosition=bottom;shape=mxgraph.gcp2.check" parent="1" vertex="1">
                    <mxGeometry x="844.75" y="1130" width="12.5" height="10" as="geometry"/>
                </mxCell>
            </root>
        </mxGraphModel>
    </diagram>
</mxfile>